<svg width="327" height="350" viewBox="0 0 327 350" fill="none" xmlns="http://www.w3.org/2000/svg">
<!-- <path fill-rule="evenodd" clip-rule="evenodd" d="M188 212L138 212L138 438H87L163.5 491L240 438H188L188 212Z" fill="#5346A2"/> -->
<rect width="327" height="212" rx="42" fill="#4C37A7" fill-opacity="0.6" />
<path fill-rule="evenodd" clip-rule="evenodd" d="M49.7977 62.0647C57.0901 55.071 58.7788 54.2213 69.3585 48.8978L69.6749 48.7386C83.2539 41.9056 94.8505 37.8656 106.051 37.0676C112.557 36.604 122.591 38.5976 133.774 40.8193C141.843 42.4223 150.51 44.1442 158.88 45.1475C169.857 46.4633 176.648 46.0486 182.934 45.6647C188.084 45.3502 192.895 45.0564 199.39 45.7528C206.029 46.4645 210.406 47.6717 214.501 48.8013C219.302 50.1255 223.717 51.3433 230.938 51.5317C238.519 51.7295 240.891 51.6471 242.76 51.5822C243.53 51.5555 244.215 51.5317 245.144 51.5317C248.326 51.5317 251.111 51.5317 252.305 50.1291C254.063 48.0635 257.004 47.3442 259.068 47.3442C261.853 47.3442 264.638 48.5377 265.434 50.1291C265.499 50.2596 265.559 50.3826 265.616 50.4992C266.251 51.8039 266.491 52.296 269.413 53.3535C272.595 54.5055 287.581 61.1341 297.65 70.7145L297.696 70.7585C298.591 71.6096 299.531 72.5025 298.456 74.3982C298.03 75.1486 297.599 75.553 297.07 76.0488C296.622 76.468 296.105 76.9524 295.463 77.7666C295.09 78.24 294.331 78.6306 293.46 79.0789C292.079 79.7898 290.417 80.6456 289.566 82.2056C288.897 83.4308 288.942 85.0262 288.979 86.3678C289.02 87.8115 289.052 88.9611 288.178 89.0386C281.488 90.9838 264.271 95.1734 248.928 96.3704C229.749 97.8667 228.758 98.565 227.221 100.111C225.992 101.348 225.47 118.399 227.221 125.149C228.659 132.714 235.721 147.793 237.584 150.786C238.948 152.976 243.131 154.44 247.012 155.798C249.758 156.76 252.353 157.668 253.689 158.743C256.91 161.337 258.651 166.194 253.101 169.087C248.304 171.587 245.343 171.549 240.961 171.493C240.273 171.484 239.549 171.474 238.778 171.474H218.885C210.501 171.474 209.168 164.439 208.343 160.089C208.145 159.041 207.976 158.15 207.745 157.549C207.445 156.769 207.044 155.07 206.528 152.885C205.001 146.41 202.467 135.674 198.577 131.982C194.414 128.032 193.538 124.251 193.423 122.538C193.423 122.538 191.433 119.356 188.962 121.907C186.086 124.877 184.785 125.511 182.009 126.864C181.494 127.115 180.929 127.391 180.294 127.71C170.035 132.873 163.257 136.969 158.88 144.42C154.504 151.872 154.831 152.377 157.218 154.764C158.814 156.36 162.178 157.005 164.953 157.536C166.329 157.799 167.56 158.035 168.358 158.345C173.928 160.509 175.917 167.63 172.336 169.087C166.897 171.3 164.45 171.474 158.88 171.474H138.917C133.06 171.474 130.69 166.671 129.641 163.504C127.956 158.417 128.154 144.551 133.06 136.571C135.138 133.192 136.874 130.983 138.111 129.408C139.797 127.263 140.558 126.295 139.998 125.149C138.917 122.936 133.745 123.558 123.798 126.119C113.852 128.681 110.914 130.648 102.712 138.85C95.5508 146.012 92.1799 153.969 93.1637 155.958C93.9754 157.599 98.1273 159.082 101.057 160.128C101.678 160.35 102.244 160.552 102.712 160.732C107.884 162.722 106.293 168.689 102.712 170.281C99.7702 171.588 96.2912 171.553 90.951 171.499C89.7916 171.487 88.5444 171.474 87.1959 171.474H76.8517C72.0893 171.474 71.0324 170.619 70.1837 169.933C69.6143 169.472 69.1387 169.087 67.7011 169.087C66.759 169.087 66.3969 169.087 66.0866 169.214C65.7417 169.355 65.4608 169.652 64.5183 170.281C62.7279 171.474 59.3462 171.474 52.9805 171.474C46.7741 171.474 43.3228 167.693 40.4566 164.553C40.383 164.473 40.3099 164.393 40.2371 164.313C35.8729 159.539 33.2493 151.982 34.191 146.845C34.5716 144.768 35.6002 142.36 36.7038 139.777C38.33 135.97 40.119 131.781 40.2371 127.71C40.3009 125.511 40.6472 123.526 40.9834 121.6C41.6913 117.543 42.3541 113.745 40.2371 108.74C37.1149 101.358 34.5379 93.0786 38.7503 81.657C39.2647 80.2624 39.7078 79.0017 40.1156 77.8413C42.3801 71.3987 43.5572 68.0497 49.7977 62.0647ZM65.1798 135.535C64.5081 136.552 63.7666 137.675 62.9269 138.85C62.3428 139.668 61.7673 140.452 61.2142 141.204C57.9999 145.58 55.5429 148.925 56.5612 151.98C57.7548 155.56 64.9161 162.722 65.314 161.528C65.7118 160.334 73.8859 133.678 71.2818 131.291C69.2273 129.408 67.6906 131.734 65.1798 135.535Z" fill="white"/>
</svg>
